<?xml version="1.0" encoding="UTF-8" standalone="no"?>
<!DOCTYPE svg PUBLIC "-//W3C//DTD SVG 1.1//EN"
 "http://www.w3.org/Graphics/SVG/1.1/DTD/svg11.dtd">
<!-- Generated by graphviz version 3.0.0 (20220226.1711)
 -->
<!-- Title: dependencies Pages: 1 -->
<svg width="1422pt" height="247pt"
 viewBox="0.00 0.00 1422.00 246.80" xmlns="http://www.w3.org/2000/svg" xmlns:xlink="http://www.w3.org/1999/xlink">
<g id="graph0" class="graph" transform="scale(1 1) rotate(0) translate(4 242.8)">
<title>dependencies</title>
<polygon fill="white" stroke="transparent" points="-4,4 -4,-242.8 1418,-242.8 1418,4 -4,4"/>
<text text-anchor="middle" x="707" y="-8.2" font-family="sans-serif" font-size="14.00">dependencies</text>
<g id="clust1" class="cluster">
<title>cluster_AppModule</title>
<polygon fill="none" stroke="black" stroke-dasharray="1,5" points="8,-32.8 8,-230.8 1406,-230.8 1406,-32.8 8,-32.8"/>
</g>
<g id="clust12" class="cluster">
<title>cluster_AppModule_imports</title>
<polygon fill="none" stroke="black" points="1254,-40.8 1254,-92.8 1398,-92.8 1398,-40.8 1254,-40.8"/>
</g>
<g id="clust14" class="cluster">
<title>cluster_AppModule_bootstrap</title>
<polygon fill="none" stroke="black" points="682,-170.8 682,-222.8 806,-222.8 806,-170.8 682,-170.8"/>
</g>
<g id="clust2" class="cluster">
<title>cluster_AppModule_declarations</title>
<polygon fill="none" stroke="black" points="16,-40.8 16,-92.8 1246,-92.8 1246,-40.8 16,-40.8"/>
</g>
<!-- AppComponent -->
<g id="node1" class="node">
<title>AppComponent</title>
<polygon fill="#ffffb3" stroke="black" points="1237.94,-84.8 1132.06,-84.8 1132.06,-48.8 1237.94,-48.8 1237.94,-84.8"/>
<text text-anchor="middle" x="1185" y="-62.6" font-family="Times,serif" font-size="14.00">AppComponent</text>
</g>
<!-- AppModule -->
<g id="node10" class="node">
<title>AppModule</title>
<polygon fill="#8dd3c7" stroke="black" points="785.66,-149.8 782.66,-153.8 761.66,-153.8 758.66,-149.8 702.34,-149.8 702.34,-113.8 785.66,-113.8 785.66,-149.8"/>
<text text-anchor="middle" x="744" y="-127.6" font-family="Times,serif" font-size="14.00">AppModule</text>
</g>
<!-- AppComponent&#45;&gt;AppModule -->
<g id="edge1" class="edge">
<title>AppComponent&#45;&gt;AppModule</title>
<path fill="none" stroke="black" d="M1185,-84.93C1185,-105.37 1185,-135.8 1185,-135.8 1185,-135.8 795.89,-135.8 795.89,-135.8"/>
<polygon fill="black" stroke="black" points="795.89,-132.3 785.89,-135.8 795.89,-139.3 795.89,-132.3"/>
</g>
<!-- ApplyFormComponent -->
<g id="node2" class="node">
<title>ApplyFormComponent</title>
<polygon fill="#ffffb3" stroke="black" points="1114.17,-84.8 967.83,-84.8 967.83,-48.8 1114.17,-48.8 1114.17,-84.8"/>
<text text-anchor="middle" x="1041" y="-62.6" font-family="Times,serif" font-size="14.00">ApplyFormComponent</text>
</g>
<!-- ApplyFormComponent&#45;&gt;AppModule -->
<g id="edge2" class="edge">
<title>ApplyFormComponent&#45;&gt;AppModule</title>
<path fill="none" stroke="black" d="M1041,-85.07C1041,-103.36 1041,-128.8 1041,-128.8 1041,-128.8 795.92,-128.8 795.92,-128.8"/>
<polygon fill="black" stroke="black" points="795.92,-125.3 785.92,-128.8 795.92,-132.3 795.92,-125.3"/>
</g>
<!-- FilterCityPipe -->
<g id="node3" class="node">
<title>FilterCityPipe</title>
<polygon fill="#ffffb3" stroke="black" points="949.84,-84.8 854.16,-84.8 854.16,-48.8 949.84,-48.8 949.84,-84.8"/>
<text text-anchor="middle" x="902" y="-62.6" font-family="Times,serif" font-size="14.00">FilterCityPipe</text>
</g>
<!-- FilterCityPipe&#45;&gt;AppModule -->
<g id="edge3" class="edge">
<title>FilterCityPipe&#45;&gt;AppModule</title>
<path fill="none" stroke="black" d="M902,-84.81C902,-100.85 902,-121.8 902,-121.8 902,-121.8 795.93,-121.8 795.93,-121.8"/>
<polygon fill="black" stroke="black" points="795.93,-118.3 785.93,-121.8 795.93,-125.3 795.93,-118.3"/>
</g>
<!-- FilterPipe -->
<g id="node4" class="node">
<title>FilterPipe</title>
<polygon fill="#ffffb3" stroke="black" points="836.72,-84.8 765.28,-84.8 765.28,-48.8 836.72,-48.8 836.72,-84.8"/>
<text text-anchor="middle" x="801" y="-62.6" font-family="Times,serif" font-size="14.00">FilterPipe</text>
</g>
<!-- FilterPipe&#45;&gt;AppModule -->
<g id="edge4" class="edge">
<title>FilterPipe&#45;&gt;AppModule</title>
<path fill="none" stroke="black" d="M775.61,-84.91C775.61,-84.91 775.61,-103.79 775.61,-103.79"/>
<polygon fill="black" stroke="black" points="772.11,-103.79 775.61,-113.79 779.11,-103.79 772.11,-103.79"/>
</g>
<!-- FooterComponent -->
<g id="node5" class="node">
<title>FooterComponent</title>
<polygon fill="#ffffb3" stroke="black" points="746.88,-84.8 629.12,-84.8 629.12,-48.8 746.88,-48.8 746.88,-84.8"/>
<text text-anchor="middle" x="688" y="-62.6" font-family="Times,serif" font-size="14.00">FooterComponent</text>
</g>
<!-- FooterComponent&#45;&gt;AppModule -->
<g id="edge5" class="edge">
<title>FooterComponent&#45;&gt;AppModule</title>
<path fill="none" stroke="black" d="M724.56,-84.91C724.56,-84.91 724.56,-103.79 724.56,-103.79"/>
<polygon fill="black" stroke="black" points="721.06,-103.79 724.56,-113.79 728.06,-103.79 721.06,-103.79"/>
</g>
<!-- HeaderComponent -->
<g id="node6" class="node">
<title>HeaderComponent</title>
<polygon fill="#ffffb3" stroke="black" points="610.75,-84.8 489.25,-84.8 489.25,-48.8 610.75,-48.8 610.75,-84.8"/>
<text text-anchor="middle" x="550" y="-62.6" font-family="Times,serif" font-size="14.00">HeaderComponent</text>
</g>
<!-- HeaderComponent&#45;&gt;AppModule -->
<g id="edge6" class="edge">
<title>HeaderComponent&#45;&gt;AppModule</title>
<path fill="none" stroke="black" d="M550,-84.81C550,-100.85 550,-121.8 550,-121.8 550,-121.8 691.9,-121.8 691.9,-121.8"/>
<polygon fill="black" stroke="black" points="691.9,-125.3 701.9,-121.8 691.9,-118.3 691.9,-125.3"/>
</g>
<!-- HomeComponent -->
<g id="node7" class="node">
<title>HomeComponent</title>
<polygon fill="#ffffb3" stroke="black" points="470.55,-84.8 355.45,-84.8 355.45,-48.8 470.55,-48.8 470.55,-84.8"/>
<text text-anchor="middle" x="413" y="-62.6" font-family="Times,serif" font-size="14.00">HomeComponent</text>
</g>
<!-- HomeComponent&#45;&gt;AppModule -->
<g id="edge7" class="edge">
<title>HomeComponent&#45;&gt;AppModule</title>
<path fill="none" stroke="black" d="M413,-85.07C413,-103.36 413,-128.8 413,-128.8 413,-128.8 692.08,-128.8 692.08,-128.8"/>
<polygon fill="black" stroke="black" points="692.08,-132.3 702.08,-128.8 692.08,-125.3 692.08,-132.3"/>
</g>
<!-- ItemDetailComponent -->
<g id="node8" class="node">
<title>ItemDetailComponent</title>
<polygon fill="#ffffb3" stroke="black" points="337.69,-84.8 196.31,-84.8 196.31,-48.8 337.69,-48.8 337.69,-84.8"/>
<text text-anchor="middle" x="267" y="-62.6" font-family="Times,serif" font-size="14.00">ItemDetailComponent</text>
</g>
<!-- ItemDetailComponent&#45;&gt;AppModule -->
<g id="edge8" class="edge">
<title>ItemDetailComponent&#45;&gt;AppModule</title>
<path fill="none" stroke="black" d="M267,-84.93C267,-105.37 267,-135.8 267,-135.8 267,-135.8 692.09,-135.8 692.09,-135.8"/>
<polygon fill="black" stroke="black" points="692.09,-139.3 702.09,-135.8 692.09,-132.3 692.09,-139.3"/>
</g>
<!-- VacantesListComponent -->
<g id="node9" class="node">
<title>VacantesListComponent</title>
<polygon fill="#ffffb3" stroke="black" points="178.41,-84.8 23.59,-84.8 23.59,-48.8 178.41,-48.8 178.41,-84.8"/>
<text text-anchor="middle" x="101" y="-62.6" font-family="Times,serif" font-size="14.00">VacantesListComponent</text>
</g>
<!-- VacantesListComponent&#45;&gt;AppModule -->
<g id="edge9" class="edge">
<title>VacantesListComponent&#45;&gt;AppModule</title>
<path fill="none" stroke="black" d="M101,-84.81C101,-107.29 101,-142.8 101,-142.8 101,-142.8 692.31,-142.8 692.31,-142.8"/>
<polygon fill="black" stroke="black" points="692.31,-146.3 702.31,-142.8 692.31,-139.3 692.31,-146.3"/>
</g>
<!-- AppComponent  -->
<g id="node12" class="node">
<title>AppComponent </title>
<polygon fill="#80b1d3" stroke="black" points="798.44,-214.8 689.56,-214.8 689.56,-178.8 798.44,-178.8 798.44,-214.8"/>
<text text-anchor="middle" x="744" y="-192.6" font-family="Times,serif" font-size="14.00">AppComponent </text>
</g>
<!-- AppModule&#45;&gt;AppComponent  -->
<g id="edge11" class="edge">
<title>AppModule&#45;&gt;AppComponent </title>
<path fill="none" stroke="black" stroke-dasharray="1,5" d="M744,-149.91C744,-149.91 744,-168.79 744,-168.79"/>
<polygon fill="black" stroke="black" points="740.5,-168.79 744,-178.79 747.5,-168.79 740.5,-168.79"/>
</g>
<!-- AppRoutingModule -->
<g id="node11" class="node">
<title>AppRoutingModule</title>
<polygon fill="#8dd3c7" stroke="black" points="1390.28,-84.8 1387.28,-88.8 1366.28,-88.8 1363.28,-84.8 1261.72,-84.8 1261.72,-48.8 1390.28,-48.8 1390.28,-84.8"/>
<text text-anchor="middle" x="1326" y="-62.6" font-family="Times,serif" font-size="14.00">AppRoutingModule</text>
</g>
<!-- AppRoutingModule&#45;&gt;AppModule -->
<g id="edge10" class="edge">
<title>AppRoutingModule&#45;&gt;AppModule</title>
<path fill="none" stroke="black" d="M1326,-84.81C1326,-107.29 1326,-142.8 1326,-142.8 1326,-142.8 795.86,-142.8 795.86,-142.8"/>
<polygon fill="black" stroke="black" points="795.86,-139.3 785.86,-142.8 795.86,-146.3 795.86,-139.3"/>
</g>
</g>
</svg>
