<?xml version="1.0" encoding="UTF-8" standalone="no"?>
<!DOCTYPE svg PUBLIC "-//W3C//DTD SVG 1.1//EN"
 "http://www.w3.org/Graphics/SVG/1.1/DTD/svg11.dtd">
<!-- Generated by graphviz version 3.0.0 (20220226.1711)
 -->
<!-- Title: dependencies Pages: 1 -->
<svg width="1708pt" height="247pt"
 viewBox="0.00 0.00 1708.00 246.80" xmlns="http://www.w3.org/2000/svg" xmlns:xlink="http://www.w3.org/1999/xlink">
<g id="graph0" class="graph" transform="scale(1 1) rotate(0) translate(4 242.8)">
<title>dependencies</title>
<polygon fill="white" stroke="transparent" points="-4,4 -4,-242.8 1704,-242.8 1704,4 -4,4"/>
<text text-anchor="middle" x="850" y="-8.2" font-family="sans-serif" font-size="14.00">dependencies</text>
<g id="clust1" class="cluster">
<title>cluster_AppModule</title>
<polygon fill="none" stroke="black" stroke-dasharray="1,5" points="8,-32.8 8,-230.8 1692,-230.8 1692,-32.8 8,-32.8"/>
</g>
<g id="clust13" class="cluster">
<title>cluster_AppModule_imports</title>
<polygon fill="none" stroke="black" points="1540,-40.8 1540,-92.8 1684,-92.8 1684,-40.8 1540,-40.8"/>
</g>
<g id="clust15" class="cluster">
<title>cluster_AppModule_bootstrap</title>
<polygon fill="none" stroke="black" points="887,-170.8 887,-222.8 1011,-222.8 1011,-170.8 887,-170.8"/>
</g>
<g id="clust2" class="cluster">
<title>cluster_AppModule_declarations</title>
<polygon fill="none" stroke="black" points="16,-40.8 16,-92.8 1532,-92.8 1532,-40.8 16,-40.8"/>
</g>
<!-- AppComponent -->
<g id="node1" class="node">
<title>AppComponent</title>
<polygon fill="#ffffb3" stroke="black" points="1523.94,-84.8 1418.06,-84.8 1418.06,-48.8 1523.94,-48.8 1523.94,-84.8"/>
<text text-anchor="middle" x="1471" y="-62.6" font-family="Times,serif" font-size="14.00">AppComponent</text>
</g>
<!-- AppModule -->
<g id="node11" class="node">
<title>AppModule</title>
<polygon fill="#8dd3c7" stroke="black" points="990.66,-149.8 987.66,-153.8 966.66,-153.8 963.66,-149.8 907.34,-149.8 907.34,-113.8 990.66,-113.8 990.66,-149.8"/>
<text text-anchor="middle" x="949" y="-127.6" font-family="Times,serif" font-size="14.00">AppModule</text>
</g>
<!-- AppComponent&#45;&gt;AppModule -->
<g id="edge1" class="edge">
<title>AppComponent&#45;&gt;AppModule</title>
<path fill="none" stroke="black" d="M1471,-85.08C1471,-106.12 1471,-137.8 1471,-137.8 1471,-137.8 1000.84,-137.8 1000.84,-137.8"/>
<polygon fill="black" stroke="black" points="1000.84,-134.3 990.84,-137.8 1000.84,-141.3 1000.84,-134.3"/>
</g>
<!-- ApplyFormComponent -->
<g id="node2" class="node">
<title>ApplyFormComponent</title>
<polygon fill="#ffffb3" stroke="black" points="1400.17,-84.8 1253.83,-84.8 1253.83,-48.8 1400.17,-48.8 1400.17,-84.8"/>
<text text-anchor="middle" x="1327" y="-62.6" font-family="Times,serif" font-size="14.00">ApplyFormComponent</text>
</g>
<!-- ApplyFormComponent&#45;&gt;AppModule -->
<g id="edge2" class="edge">
<title>ApplyFormComponent&#45;&gt;AppModule</title>
<path fill="none" stroke="black" d="M1327,-84.91C1327,-104.14 1327,-131.8 1327,-131.8 1327,-131.8 1000.9,-131.8 1000.9,-131.8"/>
<polygon fill="black" stroke="black" points="1000.9,-128.3 990.9,-131.8 1000.9,-135.3 1000.9,-128.3"/>
</g>
<!-- FilterPipe -->
<g id="node3" class="node">
<title>FilterPipe</title>
<polygon fill="#ffffb3" stroke="black" points="1235.72,-84.8 1164.28,-84.8 1164.28,-48.8 1235.72,-48.8 1235.72,-84.8"/>
<text text-anchor="middle" x="1200" y="-62.6" font-family="Times,serif" font-size="14.00">FilterPipe</text>
</g>
<!-- FilterPipe&#45;&gt;AppModule -->
<g id="edge3" class="edge">
<title>FilterPipe&#45;&gt;AppModule</title>
<path fill="none" stroke="black" d="M1200,-84.82C1200,-102.17 1200,-125.8 1200,-125.8 1200,-125.8 1000.73,-125.8 1000.73,-125.8"/>
<polygon fill="black" stroke="black" points="1000.73,-122.3 990.73,-125.8 1000.73,-129.3 1000.73,-122.3"/>
</g>
<!-- FooterComponent -->
<g id="node4" class="node">
<title>FooterComponent</title>
<polygon fill="#ffffb3" stroke="black" points="1145.88,-84.8 1028.12,-84.8 1028.12,-48.8 1145.88,-48.8 1145.88,-84.8"/>
<text text-anchor="middle" x="1087" y="-62.6" font-family="Times,serif" font-size="14.00">FooterComponent</text>
</g>
<!-- FooterComponent&#45;&gt;AppModule -->
<g id="edge4" class="edge">
<title>FooterComponent&#45;&gt;AppModule</title>
<path fill="none" stroke="black" d="M1087,-85.04C1087,-100.37 1087,-119.8 1087,-119.8 1087,-119.8 1000.78,-119.8 1000.78,-119.8"/>
<polygon fill="black" stroke="black" points="1000.78,-116.3 990.78,-119.8 1000.78,-123.3 1000.78,-116.3"/>
</g>
<!-- HeaderComponent -->
<g id="node5" class="node">
<title>HeaderComponent</title>
<polygon fill="#ffffb3" stroke="black" points="1009.75,-84.8 888.25,-84.8 888.25,-48.8 1009.75,-48.8 1009.75,-84.8"/>
<text text-anchor="middle" x="949" y="-62.6" font-family="Times,serif" font-size="14.00">HeaderComponent</text>
</g>
<!-- HeaderComponent&#45;&gt;AppModule -->
<g id="edge5" class="edge">
<title>HeaderComponent&#45;&gt;AppModule</title>
<path fill="none" stroke="black" d="M949,-84.91C949,-84.91 949,-103.79 949,-103.79"/>
<polygon fill="black" stroke="black" points="945.5,-103.79 949,-113.79 952.5,-103.79 945.5,-103.79"/>
</g>
<!-- HomeComponent -->
<g id="node6" class="node">
<title>HomeComponent</title>
<polygon fill="#ffffb3" stroke="black" points="869.55,-84.8 754.45,-84.8 754.45,-48.8 869.55,-48.8 869.55,-84.8"/>
<text text-anchor="middle" x="812" y="-62.6" font-family="Times,serif" font-size="14.00">HomeComponent</text>
</g>
<!-- HomeComponent&#45;&gt;AppModule -->
<g id="edge6" class="edge">
<title>HomeComponent&#45;&gt;AppModule</title>
<path fill="none" stroke="black" d="M812,-85.04C812,-100.37 812,-119.8 812,-119.8 812,-119.8 897.15,-119.8 897.15,-119.8"/>
<polygon fill="black" stroke="black" points="897.15,-123.3 907.15,-119.8 897.15,-116.3 897.15,-123.3"/>
</g>
<!-- ItemDetailComponent -->
<g id="node7" class="node">
<title>ItemDetailComponent</title>
<polygon fill="#ffffb3" stroke="black" points="736.69,-84.8 595.31,-84.8 595.31,-48.8 736.69,-48.8 736.69,-84.8"/>
<text text-anchor="middle" x="666" y="-62.6" font-family="Times,serif" font-size="14.00">ItemDetailComponent</text>
</g>
<!-- ItemDetailComponent&#45;&gt;AppModule -->
<g id="edge7" class="edge">
<title>ItemDetailComponent&#45;&gt;AppModule</title>
<path fill="none" stroke="black" d="M666,-84.82C666,-102.17 666,-125.8 666,-125.8 666,-125.8 897.24,-125.8 897.24,-125.8"/>
<polygon fill="black" stroke="black" points="897.24,-129.3 907.24,-125.8 897.24,-122.3 897.24,-129.3"/>
</g>
<!-- ModalExperienciaComponent -->
<g id="node8" class="node">
<title>ModalExperienciaComponent</title>
<polygon fill="#ffffb3" stroke="black" points="577.23,-84.8 392.77,-84.8 392.77,-48.8 577.23,-48.8 577.23,-84.8"/>
<text text-anchor="middle" x="485" y="-62.6" font-family="Times,serif" font-size="14.00">ModalExperienciaComponent</text>
</g>
<!-- ModalExperienciaComponent&#45;&gt;AppModule -->
<g id="edge8" class="edge">
<title>ModalExperienciaComponent&#45;&gt;AppModule</title>
<path fill="none" stroke="black" d="M485,-84.91C485,-104.14 485,-131.8 485,-131.8 485,-131.8 897,-131.8 897,-131.8"/>
<polygon fill="black" stroke="black" points="897,-135.3 907,-131.8 897,-128.3 897,-135.3"/>
</g>
<!-- ModalFormacionComponent -->
<g id="node9" class="node">
<title>ModalFormacionComponent</title>
<polygon fill="#ffffb3" stroke="black" points="374.04,-84.8 195.96,-84.8 195.96,-48.8 374.04,-48.8 374.04,-84.8"/>
<text text-anchor="middle" x="285" y="-62.6" font-family="Times,serif" font-size="14.00">ModalFormacionComponent</text>
</g>
<!-- ModalFormacionComponent&#45;&gt;AppModule -->
<g id="edge9" class="edge">
<title>ModalFormacionComponent&#45;&gt;AppModule</title>
<path fill="none" stroke="black" d="M285,-85.08C285,-106.12 285,-137.8 285,-137.8 285,-137.8 897.21,-137.8 897.21,-137.8"/>
<polygon fill="black" stroke="black" points="897.21,-141.3 907.21,-137.8 897.21,-134.3 897.21,-141.3"/>
</g>
<!-- VacantesListComponent -->
<g id="node10" class="node">
<title>VacantesListComponent</title>
<polygon fill="#ffffb3" stroke="black" points="178.41,-84.8 23.59,-84.8 23.59,-48.8 178.41,-48.8 178.41,-84.8"/>
<text text-anchor="middle" x="101" y="-62.6" font-family="Times,serif" font-size="14.00">VacantesListComponent</text>
</g>
<!-- VacantesListComponent&#45;&gt;AppModule -->
<g id="edge10" class="edge">
<title>VacantesListComponent&#45;&gt;AppModule</title>
<path fill="none" stroke="black" d="M101,-85.05C101,-107.82 101,-143.8 101,-143.8 101,-143.8 897.24,-143.8 897.24,-143.8"/>
<polygon fill="black" stroke="black" points="897.24,-147.3 907.24,-143.8 897.24,-140.3 897.24,-147.3"/>
</g>
<!-- AppComponent  -->
<g id="node13" class="node">
<title>AppComponent </title>
<polygon fill="#80b1d3" stroke="black" points="1003.44,-214.8 894.56,-214.8 894.56,-178.8 1003.44,-178.8 1003.44,-214.8"/>
<text text-anchor="middle" x="949" y="-192.6" font-family="Times,serif" font-size="14.00">AppComponent </text>
</g>
<!-- AppModule&#45;&gt;AppComponent  -->
<g id="edge12" class="edge">
<title>AppModule&#45;&gt;AppComponent </title>
<path fill="none" stroke="black" stroke-dasharray="1,5" d="M949,-149.91C949,-149.91 949,-168.79 949,-168.79"/>
<polygon fill="black" stroke="black" points="945.5,-168.79 949,-178.79 952.5,-168.79 945.5,-168.79"/>
</g>
<!-- AppRoutingModule -->
<g id="node12" class="node">
<title>AppRoutingModule</title>
<polygon fill="#8dd3c7" stroke="black" points="1676.28,-84.8 1673.28,-88.8 1652.28,-88.8 1649.28,-84.8 1547.72,-84.8 1547.72,-48.8 1676.28,-48.8 1676.28,-84.8"/>
<text text-anchor="middle" x="1612" y="-62.6" font-family="Times,serif" font-size="14.00">AppRoutingModule</text>
</g>
<!-- AppRoutingModule&#45;&gt;AppModule -->
<g id="edge11" class="edge">
<title>AppRoutingModule&#45;&gt;AppModule</title>
<path fill="none" stroke="black" d="M1612,-85.05C1612,-107.82 1612,-143.8 1612,-143.8 1612,-143.8 1000.72,-143.8 1000.72,-143.8"/>
<polygon fill="black" stroke="black" points="1000.72,-140.3 990.72,-143.8 1000.72,-147.3 1000.72,-140.3"/>
</g>
</g>
</svg>
