<?xml version="1.0" encoding="UTF-8" standalone="no"?>
<!DOCTYPE svg PUBLIC "-//W3C//DTD SVG 1.1//EN"
 "http://www.w3.org/Graphics/SVG/1.1/DTD/svg11.dtd">
<!-- Generated by graphviz version 3.0.0 (20220226.1711)
 -->
<!-- Title: dependencies Pages: 1 -->
<svg width="1708pt" height="247pt"
 viewBox="0.00 0.00 1708.00 246.80" xmlns="http://www.w3.org/2000/svg" xmlns:xlink="http://www.w3.org/1999/xlink">
<g id="graph0" class="graph" transform="scale(1 1) rotate(0) translate(4 242.8)">
<title>dependencies</title>
<polygon fill="white" stroke="transparent" points="-4,4 -4,-242.8 1704,-242.8 1704,4 -4,4"/>
<text text-anchor="middle" x="850" y="-8.2" font-family="sans-serif" font-size="14.00">dependencies</text>
<g id="clust1" class="cluster">
<title>cluster_AppModule</title>
<polygon fill="none" stroke="black" stroke-dasharray="1,5" points="8,-32.8 8,-230.8 1692,-230.8 1692,-32.8 8,-32.8"/>
</g>
<g id="clust2" class="cluster">
<title>cluster_AppModule_declarations</title>
<polygon fill="none" stroke="black" points="168,-40.8 168,-92.8 1684,-92.8 1684,-40.8 168,-40.8"/>
</g>
<g id="clust13" class="cluster">
<title>cluster_AppModule_imports</title>
<polygon fill="none" stroke="black" points="16,-40.8 16,-92.8 160,-92.8 160,-40.8 16,-40.8"/>
</g>
<g id="clust15" class="cluster">
<title>cluster_AppModule_bootstrap</title>
<polygon fill="none" stroke="black" points="902,-170.8 902,-222.8 1026,-222.8 1026,-170.8 902,-170.8"/>
</g>
<!-- AppComponent -->
<g id="node1" class="node">
<title>AppComponent</title>
<polygon fill="#ffffb3" stroke="black" points="1675.94,-84.8 1570.06,-84.8 1570.06,-48.8 1675.94,-48.8 1675.94,-84.8"/>
<text text-anchor="middle" x="1623" y="-62.6" font-family="Times,serif" font-size="14.00">AppComponent</text>
</g>
<!-- AppModule -->
<g id="node11" class="node">
<title>AppModule</title>
<polygon fill="#8dd3c7" stroke="black" points="1005.66,-149.8 1002.66,-153.8 981.66,-153.8 978.66,-149.8 922.34,-149.8 922.34,-113.8 1005.66,-113.8 1005.66,-149.8"/>
<text text-anchor="middle" x="964" y="-127.6" font-family="Times,serif" font-size="14.00">AppModule</text>
</g>
<!-- AppComponent&#45;&gt;AppModule -->
<g id="edge1" class="edge">
<title>AppComponent&#45;&gt;AppModule</title>
<path fill="none" stroke="black" d="M1623,-85.05C1623,-107.82 1623,-143.8 1623,-143.8 1623,-143.8 1015.72,-143.8 1015.72,-143.8"/>
<polygon fill="black" stroke="black" points="1015.72,-140.3 1005.72,-143.8 1015.72,-147.3 1015.72,-140.3"/>
</g>
<!-- ApplyFormComponent -->
<g id="node2" class="node">
<title>ApplyFormComponent</title>
<polygon fill="#ffffb3" stroke="black" points="1552.17,-84.8 1405.83,-84.8 1405.83,-48.8 1552.17,-48.8 1552.17,-84.8"/>
<text text-anchor="middle" x="1479" y="-62.6" font-family="Times,serif" font-size="14.00">ApplyFormComponent</text>
</g>
<!-- ApplyFormComponent&#45;&gt;AppModule -->
<g id="edge2" class="edge">
<title>ApplyFormComponent&#45;&gt;AppModule</title>
<path fill="none" stroke="black" d="M1479,-85.08C1479,-106.12 1479,-137.8 1479,-137.8 1479,-137.8 1015.71,-137.8 1015.71,-137.8"/>
<polygon fill="black" stroke="black" points="1015.71,-134.3 1005.71,-137.8 1015.71,-141.3 1015.71,-134.3"/>
</g>
<!-- FilterPipe -->
<g id="node3" class="node">
<title>FilterPipe</title>
<polygon fill="#ffffb3" stroke="black" points="1387.72,-84.8 1316.28,-84.8 1316.28,-48.8 1387.72,-48.8 1387.72,-84.8"/>
<text text-anchor="middle" x="1352" y="-62.6" font-family="Times,serif" font-size="14.00">FilterPipe</text>
</g>
<!-- FilterPipe&#45;&gt;AppModule -->
<g id="edge3" class="edge">
<title>FilterPipe&#45;&gt;AppModule</title>
<path fill="none" stroke="black" d="M1352,-84.91C1352,-104.14 1352,-131.8 1352,-131.8 1352,-131.8 1015.89,-131.8 1015.89,-131.8"/>
<polygon fill="black" stroke="black" points="1015.89,-128.3 1005.89,-131.8 1015.89,-135.3 1015.89,-128.3"/>
</g>
<!-- FooterComponent -->
<g id="node4" class="node">
<title>FooterComponent</title>
<polygon fill="#ffffb3" stroke="black" points="1297.88,-84.8 1180.12,-84.8 1180.12,-48.8 1297.88,-48.8 1297.88,-84.8"/>
<text text-anchor="middle" x="1239" y="-62.6" font-family="Times,serif" font-size="14.00">FooterComponent</text>
</g>
<!-- FooterComponent&#45;&gt;AppModule -->
<g id="edge4" class="edge">
<title>FooterComponent&#45;&gt;AppModule</title>
<path fill="none" stroke="black" d="M1239,-84.82C1239,-102.17 1239,-125.8 1239,-125.8 1239,-125.8 1015.77,-125.8 1015.77,-125.8"/>
<polygon fill="black" stroke="black" points="1015.77,-122.3 1005.77,-125.8 1015.77,-129.3 1015.77,-122.3"/>
</g>
<!-- HeaderComponent -->
<g id="node5" class="node">
<title>HeaderComponent</title>
<polygon fill="#ffffb3" stroke="black" points="1161.75,-84.8 1040.25,-84.8 1040.25,-48.8 1161.75,-48.8 1161.75,-84.8"/>
<text text-anchor="middle" x="1101" y="-62.6" font-family="Times,serif" font-size="14.00">HeaderComponent</text>
</g>
<!-- HeaderComponent&#45;&gt;AppModule -->
<g id="edge5" class="edge">
<title>HeaderComponent&#45;&gt;AppModule</title>
<path fill="none" stroke="black" d="M1101,-85.04C1101,-100.37 1101,-119.8 1101,-119.8 1101,-119.8 1015.85,-119.8 1015.85,-119.8"/>
<polygon fill="black" stroke="black" points="1015.85,-116.3 1005.85,-119.8 1015.85,-123.3 1015.85,-116.3"/>
</g>
<!-- HomeComponent -->
<g id="node6" class="node">
<title>HomeComponent</title>
<polygon fill="#ffffb3" stroke="black" points="1021.55,-84.8 906.45,-84.8 906.45,-48.8 1021.55,-48.8 1021.55,-84.8"/>
<text text-anchor="middle" x="964" y="-62.6" font-family="Times,serif" font-size="14.00">HomeComponent</text>
</g>
<!-- HomeComponent&#45;&gt;AppModule -->
<g id="edge6" class="edge">
<title>HomeComponent&#45;&gt;AppModule</title>
<path fill="none" stroke="black" d="M964,-84.91C964,-84.91 964,-103.79 964,-103.79"/>
<polygon fill="black" stroke="black" points="960.5,-103.79 964,-113.79 967.5,-103.79 960.5,-103.79"/>
</g>
<!-- ItemDetailComponent -->
<g id="node7" class="node">
<title>ItemDetailComponent</title>
<polygon fill="#ffffb3" stroke="black" points="888.69,-84.8 747.31,-84.8 747.31,-48.8 888.69,-48.8 888.69,-84.8"/>
<text text-anchor="middle" x="818" y="-62.6" font-family="Times,serif" font-size="14.00">ItemDetailComponent</text>
</g>
<!-- ItemDetailComponent&#45;&gt;AppModule -->
<g id="edge7" class="edge">
<title>ItemDetailComponent&#45;&gt;AppModule</title>
<path fill="none" stroke="black" d="M818,-85.04C818,-100.37 818,-119.8 818,-119.8 818,-119.8 912.16,-119.8 912.16,-119.8"/>
<polygon fill="black" stroke="black" points="912.16,-123.3 922.16,-119.8 912.16,-116.3 912.16,-123.3"/>
</g>
<!-- ModalExperienciaComponent -->
<g id="node8" class="node">
<title>ModalExperienciaComponent</title>
<polygon fill="#ffffb3" stroke="black" points="729.23,-84.8 544.77,-84.8 544.77,-48.8 729.23,-48.8 729.23,-84.8"/>
<text text-anchor="middle" x="637" y="-62.6" font-family="Times,serif" font-size="14.00">ModalExperienciaComponent</text>
</g>
<!-- ModalExperienciaComponent&#45;&gt;AppModule -->
<g id="edge8" class="edge">
<title>ModalExperienciaComponent&#45;&gt;AppModule</title>
<path fill="none" stroke="black" d="M637,-84.82C637,-102.17 637,-125.8 637,-125.8 637,-125.8 912.25,-125.8 912.25,-125.8"/>
<polygon fill="black" stroke="black" points="912.25,-129.3 922.25,-125.8 912.25,-122.3 912.25,-129.3"/>
</g>
<!-- ModalFormacionComponent -->
<g id="node9" class="node">
<title>ModalFormacionComponent</title>
<polygon fill="#ffffb3" stroke="black" points="526.04,-84.8 347.96,-84.8 347.96,-48.8 526.04,-48.8 526.04,-84.8"/>
<text text-anchor="middle" x="437" y="-62.6" font-family="Times,serif" font-size="14.00">ModalFormacionComponent</text>
</g>
<!-- ModalFormacionComponent&#45;&gt;AppModule -->
<g id="edge9" class="edge">
<title>ModalFormacionComponent&#45;&gt;AppModule</title>
<path fill="none" stroke="black" d="M437,-84.91C437,-104.14 437,-131.8 437,-131.8 437,-131.8 912.21,-131.8 912.21,-131.8"/>
<polygon fill="black" stroke="black" points="912.21,-135.3 922.21,-131.8 912.21,-128.3 912.21,-135.3"/>
</g>
<!-- VacantesListComponent -->
<g id="node10" class="node">
<title>VacantesListComponent</title>
<polygon fill="#ffffb3" stroke="black" points="330.41,-84.8 175.59,-84.8 175.59,-48.8 330.41,-48.8 330.41,-84.8"/>
<text text-anchor="middle" x="253" y="-62.6" font-family="Times,serif" font-size="14.00">VacantesListComponent</text>
</g>
<!-- VacantesListComponent&#45;&gt;AppModule -->
<g id="edge10" class="edge">
<title>VacantesListComponent&#45;&gt;AppModule</title>
<path fill="none" stroke="black" d="M253,-85.08C253,-106.12 253,-137.8 253,-137.8 253,-137.8 912.18,-137.8 912.18,-137.8"/>
<polygon fill="black" stroke="black" points="912.18,-141.3 922.18,-137.8 912.18,-134.3 912.18,-141.3"/>
</g>
<!-- AppComponent  -->
<g id="node13" class="node">
<title>AppComponent </title>
<polygon fill="#80b1d3" stroke="black" points="1018.44,-214.8 909.56,-214.8 909.56,-178.8 1018.44,-178.8 1018.44,-214.8"/>
<text text-anchor="middle" x="964" y="-192.6" font-family="Times,serif" font-size="14.00">AppComponent </text>
</g>
<!-- AppModule&#45;&gt;AppComponent  -->
<g id="edge12" class="edge">
<title>AppModule&#45;&gt;AppComponent </title>
<path fill="none" stroke="black" stroke-dasharray="1,5" d="M964,-149.91C964,-149.91 964,-168.79 964,-168.79"/>
<polygon fill="black" stroke="black" points="960.5,-168.79 964,-178.79 967.5,-168.79 960.5,-168.79"/>
</g>
<!-- AppRoutingModule -->
<g id="node12" class="node">
<title>AppRoutingModule</title>
<polygon fill="#8dd3c7" stroke="black" points="152.28,-84.8 149.28,-88.8 128.28,-88.8 125.28,-84.8 23.72,-84.8 23.72,-48.8 152.28,-48.8 152.28,-84.8"/>
<text text-anchor="middle" x="88" y="-62.6" font-family="Times,serif" font-size="14.00">AppRoutingModule</text>
</g>
<!-- AppRoutingModule&#45;&gt;AppModule -->
<g id="edge11" class="edge">
<title>AppRoutingModule&#45;&gt;AppModule</title>
<path fill="none" stroke="black" d="M88,-85.05C88,-107.82 88,-143.8 88,-143.8 88,-143.8 912.04,-143.8 912.04,-143.8"/>
<polygon fill="black" stroke="black" points="912.04,-147.3 922.04,-143.8 912.04,-140.3 912.04,-147.3"/>
</g>
</g>
</svg>
