<?xml version="1.0" encoding="UTF-8" standalone="no"?>
<!DOCTYPE svg PUBLIC "-//W3C//DTD SVG 1.1//EN"
 "http://www.w3.org/Graphics/SVG/1.1/DTD/svg11.dtd">
<!-- Generated by graphviz version 3.0.0 (20220226.1711)
 -->
<!-- Title: dependencies Pages: 1 -->
<svg width="1309pt" height="247pt"
 viewBox="0.00 0.00 1309.00 246.80" xmlns="http://www.w3.org/2000/svg" xmlns:xlink="http://www.w3.org/1999/xlink">
<g id="graph0" class="graph" transform="scale(1 1) rotate(0) translate(4 242.8)">
<title>dependencies</title>
<polygon fill="white" stroke="transparent" points="-4,4 -4,-242.8 1305,-242.8 1305,4 -4,4"/>
<text text-anchor="middle" x="650.5" y="-8.2" font-family="sans-serif" font-size="14.00">dependencies</text>
<g id="clust1" class="cluster">
<title>cluster_AppModule</title>
<polygon fill="none" stroke="black" stroke-dasharray="1,5" points="8,-32.8 8,-230.8 1293,-230.8 1293,-32.8 8,-32.8"/>
</g>
<g id="clust2" class="cluster">
<title>cluster_AppModule_declarations</title>
<polygon fill="none" stroke="black" points="168,-40.8 168,-92.8 1285,-92.8 1285,-40.8 168,-40.8"/>
</g>
<g id="clust11" class="cluster">
<title>cluster_AppModule_imports</title>
<polygon fill="none" stroke="black" points="16,-40.8 16,-92.8 160,-92.8 160,-40.8 16,-40.8"/>
</g>
<g id="clust13" class="cluster">
<title>cluster_AppModule_bootstrap</title>
<polygon fill="none" stroke="black" points="640,-170.8 640,-222.8 764,-222.8 764,-170.8 640,-170.8"/>
</g>
<!-- AppComponent -->
<g id="node1" class="node">
<title>AppComponent</title>
<polygon fill="#ffffb3" stroke="black" points="1276.94,-84.8 1171.06,-84.8 1171.06,-48.8 1276.94,-48.8 1276.94,-84.8"/>
<text text-anchor="middle" x="1224" y="-62.6" font-family="Times,serif" font-size="14.00">AppComponent</text>
</g>
<!-- AppModule -->
<g id="node9" class="node">
<title>AppModule</title>
<polygon fill="#8dd3c7" stroke="black" points="743.66,-149.8 740.66,-153.8 719.66,-153.8 716.66,-149.8 660.34,-149.8 660.34,-113.8 743.66,-113.8 743.66,-149.8"/>
<text text-anchor="middle" x="702" y="-127.6" font-family="Times,serif" font-size="14.00">AppModule</text>
</g>
<!-- AppComponent&#45;&gt;AppModule -->
<g id="edge1" class="edge">
<title>AppComponent&#45;&gt;AppModule</title>
<path fill="none" stroke="black" d="M1224,-84.81C1224,-107.29 1224,-142.8 1224,-142.8 1224,-142.8 753.84,-142.8 753.84,-142.8"/>
<polygon fill="black" stroke="black" points="753.84,-139.3 743.84,-142.8 753.84,-146.3 753.84,-139.3"/>
</g>
<!-- ApplyFormComponent -->
<g id="node2" class="node">
<title>ApplyFormComponent</title>
<polygon fill="#ffffb3" stroke="black" points="1153.17,-84.8 1006.83,-84.8 1006.83,-48.8 1153.17,-48.8 1153.17,-84.8"/>
<text text-anchor="middle" x="1080" y="-62.6" font-family="Times,serif" font-size="14.00">ApplyFormComponent</text>
</g>
<!-- ApplyFormComponent&#45;&gt;AppModule -->
<g id="edge2" class="edge">
<title>ApplyFormComponent&#45;&gt;AppModule</title>
<path fill="none" stroke="black" d="M1080,-84.93C1080,-105.37 1080,-135.8 1080,-135.8 1080,-135.8 753.9,-135.8 753.9,-135.8"/>
<polygon fill="black" stroke="black" points="753.9,-132.3 743.9,-135.8 753.9,-139.3 753.9,-132.3"/>
</g>
<!-- FilterPipe -->
<g id="node3" class="node">
<title>FilterPipe</title>
<polygon fill="#ffffb3" stroke="black" points="988.72,-84.8 917.28,-84.8 917.28,-48.8 988.72,-48.8 988.72,-84.8"/>
<text text-anchor="middle" x="953" y="-62.6" font-family="Times,serif" font-size="14.00">FilterPipe</text>
</g>
<!-- FilterPipe&#45;&gt;AppModule -->
<g id="edge3" class="edge">
<title>FilterPipe&#45;&gt;AppModule</title>
<path fill="none" stroke="black" d="M953,-85.07C953,-103.36 953,-128.8 953,-128.8 953,-128.8 753.73,-128.8 753.73,-128.8"/>
<polygon fill="black" stroke="black" points="753.73,-125.3 743.73,-128.8 753.73,-132.3 753.73,-125.3"/>
</g>
<!-- FooterComponent -->
<g id="node4" class="node">
<title>FooterComponent</title>
<polygon fill="#ffffb3" stroke="black" points="898.88,-84.8 781.12,-84.8 781.12,-48.8 898.88,-48.8 898.88,-84.8"/>
<text text-anchor="middle" x="840" y="-62.6" font-family="Times,serif" font-size="14.00">FooterComponent</text>
</g>
<!-- FooterComponent&#45;&gt;AppModule -->
<g id="edge4" class="edge">
<title>FooterComponent&#45;&gt;AppModule</title>
<path fill="none" stroke="black" d="M840,-84.81C840,-100.85 840,-121.8 840,-121.8 840,-121.8 753.78,-121.8 753.78,-121.8"/>
<polygon fill="black" stroke="black" points="753.78,-118.3 743.78,-121.8 753.78,-125.3 753.78,-118.3"/>
</g>
<!-- HeaderComponent -->
<g id="node5" class="node">
<title>HeaderComponent</title>
<polygon fill="#ffffb3" stroke="black" points="762.75,-84.8 641.25,-84.8 641.25,-48.8 762.75,-48.8 762.75,-84.8"/>
<text text-anchor="middle" x="702" y="-62.6" font-family="Times,serif" font-size="14.00">HeaderComponent</text>
</g>
<!-- HeaderComponent&#45;&gt;AppModule -->
<g id="edge5" class="edge">
<title>HeaderComponent&#45;&gt;AppModule</title>
<path fill="none" stroke="black" d="M702,-84.91C702,-84.91 702,-103.79 702,-103.79"/>
<polygon fill="black" stroke="black" points="698.5,-103.79 702,-113.79 705.5,-103.79 698.5,-103.79"/>
</g>
<!-- HomeComponent -->
<g id="node6" class="node">
<title>HomeComponent</title>
<polygon fill="#ffffb3" stroke="black" points="622.55,-84.8 507.45,-84.8 507.45,-48.8 622.55,-48.8 622.55,-84.8"/>
<text text-anchor="middle" x="565" y="-62.6" font-family="Times,serif" font-size="14.00">HomeComponent</text>
</g>
<!-- HomeComponent&#45;&gt;AppModule -->
<g id="edge6" class="edge">
<title>HomeComponent&#45;&gt;AppModule</title>
<path fill="none" stroke="black" d="M565,-84.81C565,-100.85 565,-121.8 565,-121.8 565,-121.8 650.15,-121.8 650.15,-121.8"/>
<polygon fill="black" stroke="black" points="650.15,-125.3 660.15,-121.8 650.15,-118.3 650.15,-125.3"/>
</g>
<!-- ItemDetailComponent -->
<g id="node7" class="node">
<title>ItemDetailComponent</title>
<polygon fill="#ffffb3" stroke="black" points="489.69,-84.8 348.31,-84.8 348.31,-48.8 489.69,-48.8 489.69,-84.8"/>
<text text-anchor="middle" x="419" y="-62.6" font-family="Times,serif" font-size="14.00">ItemDetailComponent</text>
</g>
<!-- ItemDetailComponent&#45;&gt;AppModule -->
<g id="edge7" class="edge">
<title>ItemDetailComponent&#45;&gt;AppModule</title>
<path fill="none" stroke="black" d="M419,-85.07C419,-103.36 419,-128.8 419,-128.8 419,-128.8 650.24,-128.8 650.24,-128.8"/>
<polygon fill="black" stroke="black" points="650.24,-132.3 660.24,-128.8 650.24,-125.3 650.24,-132.3"/>
</g>
<!-- VacantesListComponent -->
<g id="node8" class="node">
<title>VacantesListComponent</title>
<polygon fill="#ffffb3" stroke="black" points="330.41,-84.8 175.59,-84.8 175.59,-48.8 330.41,-48.8 330.41,-84.8"/>
<text text-anchor="middle" x="253" y="-62.6" font-family="Times,serif" font-size="14.00">VacantesListComponent</text>
</g>
<!-- VacantesListComponent&#45;&gt;AppModule -->
<g id="edge8" class="edge">
<title>VacantesListComponent&#45;&gt;AppModule</title>
<path fill="none" stroke="black" d="M253,-84.93C253,-105.37 253,-135.8 253,-135.8 253,-135.8 650.16,-135.8 650.16,-135.8"/>
<polygon fill="black" stroke="black" points="650.16,-139.3 660.16,-135.8 650.16,-132.3 650.16,-139.3"/>
</g>
<!-- AppComponent  -->
<g id="node11" class="node">
<title>AppComponent </title>
<polygon fill="#80b1d3" stroke="black" points="756.44,-214.8 647.56,-214.8 647.56,-178.8 756.44,-178.8 756.44,-214.8"/>
<text text-anchor="middle" x="702" y="-192.6" font-family="Times,serif" font-size="14.00">AppComponent </text>
</g>
<!-- AppModule&#45;&gt;AppComponent  -->
<g id="edge10" class="edge">
<title>AppModule&#45;&gt;AppComponent </title>
<path fill="none" stroke="black" stroke-dasharray="1,5" d="M702,-149.91C702,-149.91 702,-168.79 702,-168.79"/>
<polygon fill="black" stroke="black" points="698.5,-168.79 702,-178.79 705.5,-168.79 698.5,-168.79"/>
</g>
<!-- AppRoutingModule -->
<g id="node10" class="node">
<title>AppRoutingModule</title>
<polygon fill="#8dd3c7" stroke="black" points="152.28,-84.8 149.28,-88.8 128.28,-88.8 125.28,-84.8 23.72,-84.8 23.72,-48.8 152.28,-48.8 152.28,-84.8"/>
<text text-anchor="middle" x="88" y="-62.6" font-family="Times,serif" font-size="14.00">AppRoutingModule</text>
</g>
<!-- AppRoutingModule&#45;&gt;AppModule -->
<g id="edge9" class="edge">
<title>AppRoutingModule&#45;&gt;AppModule</title>
<path fill="none" stroke="black" d="M88,-84.81C88,-107.29 88,-142.8 88,-142.8 88,-142.8 650.28,-142.8 650.28,-142.8"/>
<polygon fill="black" stroke="black" points="650.28,-146.3 660.28,-142.8 650.28,-139.3 650.28,-146.3"/>
</g>
</g>
</svg>
